<svg width="34" height="32" viewBox="0 0 34 32" fill="none" xmlns="http://www.w3.org/2000/svg">
<g clip-path="url(#clip0_6:14)">
<path d="M32.8842 16.6026C32.8842 15.5361 32.7929 14.4638 32.5983 13.4146H16.9862V19.4563H25.9265C25.5555 21.4049 24.3635 23.1287 22.618 24.2241V28.1443H27.9518C31.0839 25.4117 32.8842 21.3761 32.8842 16.6026Z" fill="#4285F4"/>
<path d="M16.9861 31.9322C21.4502 31.9322 25.2148 30.5428 27.9577 28.1445L22.624 24.2243C21.14 25.1813 19.2242 25.7232 16.9922 25.7232C12.6741 25.7232 9.01281 22.9617 7.69913 19.249H2.19507V23.2903C5.00488 28.5884 10.7279 31.9322 16.9861 31.9322Z" fill="#34A853"/>
<path d="M7.69312 19.2492C6.99979 17.3006 6.99979 15.1906 7.69312 13.242V9.20068H2.19514C-0.152449 13.634 -0.152449 18.8572 2.19514 23.2905L7.69312 19.2492Z" fill="#FBBC04"/>
<path d="M16.9861 6.7618C19.3459 6.72721 21.6265 7.56891 23.3355 9.11395L28.0611 4.63449C25.0689 1.97102 21.0974 0.506695 16.9861 0.552815C10.7279 0.552815 5.00488 3.89656 2.19507 9.20043L7.69305 13.2417C9.00065 9.52327 12.668 6.7618 16.9861 6.7618Z" fill="#EA4335"/>
</g>
<defs>
<clipPath id="clip0_6:14">
<rect width="33.1034" height="31.3793" fill="white" transform="translate(0.103394 0.551758)"/>
</clipPath>
</defs>
</svg>
